<svg width="18" height="19" viewBox="0 0 18 19" fill="none" xmlns="http://www.w3.org/2000/svg">
<path d="M5.09006 8.01911C5.09006 8.23964 5.1139 8.41845 5.15563 8.54958C5.20331 8.6807 5.26291 8.82375 5.34635 8.97872C5.37616 9.0264 5.38808 9.07408 5.38808 9.1158C5.38808 9.1754 5.35232 9.23501 5.27483 9.29461L4.89934 9.54494C4.84569 9.5807 4.79205 9.59858 4.74437 9.59858C4.68477 9.59858 4.62516 9.56878 4.56556 9.51514C4.48212 9.42574 4.41059 9.33037 4.35099 9.23501C4.29139 9.13368 4.23179 9.02044 4.16622 8.88335C3.70132 9.4317 3.11722 9.70587 2.4139 9.70587C1.91324 9.70587 1.5139 9.56282 1.22185 9.27673C0.929799 8.99064 0.780792 8.60918 0.780792 8.13236C0.780792 7.62574 0.9596 7.21448 1.32318 6.90454C1.68675 6.59461 2.16953 6.43964 2.78344 6.43964C2.98609 6.43964 3.1947 6.45752 3.41523 6.48732C3.63576 6.51713 3.86225 6.56481 4.10066 6.61845V6.18335C4.10066 5.73037 4.0053 5.41448 3.82053 5.22971C3.6298 5.04494 3.30794 4.95554 2.849 4.95554C2.64039 4.95554 2.42583 4.97938 2.2053 5.03302C1.98477 5.08666 1.7702 5.15223 1.56159 5.23567C1.46622 5.27739 1.3947 5.30123 1.35298 5.31315C1.31126 5.32507 1.28145 5.33103 1.25761 5.33103C1.17417 5.33103 1.13245 5.27143 1.13245 5.14627V4.85421C1.13245 4.75885 1.14437 4.68732 1.17417 4.6456C1.20397 4.60388 1.25761 4.56216 1.34106 4.52044C1.54967 4.41315 1.8 4.32375 2.09205 4.25223C2.3841 4.17474 2.69404 4.13898 3.02185 4.13898C3.73112 4.13898 4.24967 4.29991 4.58344 4.62176C4.91126 4.94362 5.07814 5.43236 5.07814 6.08799V8.01911H5.09006ZM2.6702 8.92507C2.86688 8.92507 3.06953 8.88931 3.2841 8.81779C3.49867 8.74626 3.6894 8.61514 3.85033 8.43633C3.94569 8.32309 4.01722 8.19792 4.05298 8.05487C4.08874 7.91183 4.11258 7.73898 4.11258 7.53633V7.286C3.93973 7.24428 3.75496 7.20852 3.56424 7.18468C3.37351 7.16084 3.18874 7.14891 3.00397 7.14891C2.60463 7.14891 2.31258 7.2264 2.11589 7.38733C1.9192 7.54825 1.82384 7.77474 1.82384 8.07276C1.82384 8.35289 1.89536 8.5615 2.04437 8.70454C2.18741 8.85355 2.39602 8.92507 2.6702 8.92507ZM7.45629 9.56878C7.349 9.56878 7.27748 9.5509 7.2298 9.50918C7.18212 9.47342 7.14039 9.38997 7.10463 9.27673L5.70397 4.66944C5.66821 4.55024 5.65033 4.47276 5.65033 4.43103C5.65033 4.33567 5.69801 4.28203 5.79337 4.28203H6.37748C6.49073 4.28203 6.56821 4.29991 6.60993 4.34163C6.65761 4.37739 6.69337 4.46083 6.72914 4.57408L7.73046 8.51978L8.66026 4.57408C8.69006 4.45487 8.72583 4.37739 8.77351 4.34163C8.82119 4.30587 8.90463 4.28203 9.01192 4.28203H9.48874C9.60198 4.28203 9.67947 4.29991 9.72715 4.34163C9.77483 4.37739 9.81655 4.46083 9.84039 4.57408L10.7821 8.56746L11.8132 4.57408C11.849 4.45487 11.8907 4.37739 11.9324 4.34163C11.9801 4.30587 12.0576 4.28203 12.1649 4.28203H12.7192C12.8146 4.28203 12.8682 4.32971 12.8682 4.43103C12.8682 4.46083 12.8622 4.49064 12.8563 4.5264C12.8503 4.56216 12.8384 4.60984 12.8146 4.6754L11.3781 9.28269C11.3424 9.40189 11.3007 9.47938 11.253 9.51514C11.2053 9.5509 11.1278 9.57474 11.0265 9.57474H10.5139C10.4007 9.57474 10.3232 9.55686 10.2755 9.51514C10.2278 9.47342 10.1861 9.39593 10.1622 9.27673L9.23841 5.43236L8.32053 9.27077C8.29073 9.38997 8.25496 9.46746 8.20728 9.50918C8.1596 9.5509 8.07616 9.56878 7.96887 9.56878H7.45629ZM15.1152 9.72971C14.8053 9.72971 14.4954 9.69395 14.1973 9.62242C13.8993 9.5509 13.6669 9.47342 13.5119 9.38401C13.4166 9.33037 13.351 9.27077 13.3272 9.21713C13.3033 9.16348 13.2914 9.10388 13.2914 9.05024V8.74627C13.2914 8.6211 13.3391 8.5615 13.4285 8.5615C13.4642 8.5615 13.5 8.56746 13.5358 8.57938C13.5715 8.5913 13.6252 8.61514 13.6848 8.63898C13.8874 8.72838 14.1079 8.79991 14.3404 8.84759C14.5788 8.89527 14.8113 8.91911 15.0497 8.91911C15.4252 8.91911 15.7172 8.85355 15.9199 8.72242C16.1225 8.5913 16.2298 8.40057 16.2298 8.1562C16.2298 7.98931 16.1762 7.85223 16.0689 7.73898C15.9616 7.62574 15.7589 7.52441 15.4669 7.42905L14.6026 7.16084C14.1675 7.02375 13.8457 6.8211 13.649 6.55289C13.4523 6.29064 13.351 5.99858 13.351 5.68865C13.351 5.43832 13.4046 5.21779 13.5119 5.02706C13.6192 4.83633 13.7622 4.66944 13.9411 4.53832C14.1199 4.40123 14.3225 4.29991 14.5609 4.22838C14.7993 4.15686 15.0497 4.12706 15.3119 4.12706C15.443 4.12706 15.5801 4.13302 15.7113 4.1509C15.8483 4.16878 15.9735 4.19262 16.0987 4.21646C16.2179 4.24627 16.3311 4.27607 16.4384 4.31183C16.5457 4.34759 16.6291 4.38335 16.6887 4.41911C16.7722 4.4668 16.8318 4.51448 16.8675 4.56812C16.9033 4.6158 16.9212 4.68136 16.9212 4.76481V5.04494C16.9212 5.17011 16.8735 5.23567 16.7841 5.23567C16.7364 5.23567 16.6589 5.21183 16.5576 5.16415C16.2179 5.00918 15.8364 4.9317 15.4132 4.9317C15.0735 4.9317 14.8053 4.98534 14.6205 5.09858C14.4358 5.21183 14.3404 5.38468 14.3404 5.62905C14.3404 5.79593 14.4 5.93898 14.5192 6.05223C14.6384 6.16547 14.8589 6.27872 15.1748 6.38004L16.0212 6.64825C16.4503 6.78534 16.7603 6.97607 16.945 7.22044C17.1298 7.46481 17.2192 7.74494 17.2192 8.05487C17.2192 8.31117 17.1656 8.54362 17.0642 8.74627C16.957 8.94891 16.8139 9.12772 16.6291 9.27077C16.4444 9.41978 16.2238 9.52706 15.9675 9.60454C15.6993 9.68799 15.4192 9.72971 15.1152 9.72971Z" fill="#9F9FA9"/>
<path d="M16.2417 12.6264C14.2808 14.0747 11.4318 14.8436 8.98212 14.8436C5.549 14.8436 2.45563 13.5741 0.119202 11.4642C-0.0655663 11.2973 0.101321 11.0708 0.321851 11.2019C2.849 12.6681 5.96622 13.5562 9.19073 13.5562C11.3662 13.5562 13.7563 13.1032 15.9556 12.1734C16.2834 12.0244 16.5636 12.388 16.2417 12.6264ZM17.0583 11.6966C16.8079 11.3747 15.4013 11.5416 14.7636 11.6191C14.5728 11.643 14.543 11.4761 14.7159 11.3509C15.8364 10.5642 17.6781 10.7906 17.8927 11.0529C18.1073 11.3211 17.8331 13.1628 16.7841 14.0449C16.6232 14.182 16.4682 14.1105 16.5397 13.9317C16.7781 13.3416 17.3086 12.0125 17.0583 11.6966Z" fill="#9F9FA9"/>
</svg>
