<svg width="16" height="17" viewBox="0 0 16 17" fill="none" xmlns="http://www.w3.org/2000/svg">
<path d="M15 1.5H1V15.5H15V1.5Z" fill="#9F9FA9"/>
<path d="M9.5 13.1439L10.5308 12.4618C10.6116 12.7156 11.1231 13.3184 11.7692 13.3184C12.4154 13.3184 12.7154 12.9655 12.7154 12.7315C12.7154 12.0939 12.0556 11.8691 11.7387 11.7611C11.687 11.7435 11.6445 11.729 11.6154 11.7164C11.6005 11.7099 11.5779 11.7012 11.549 11.6902C11.1965 11.5555 9.89615 11.0587 9.89615 9.61865C9.89615 8.0325 11.4269 7.8501 11.7731 7.8501C11.9995 7.8501 13.0884 7.87785 13.6307 8.89695L12.6307 9.5949C12.4115 9.15075 12.0473 9.00405 11.8231 9.00405C11.2693 9.00405 11.1538 9.41005 11.1538 9.5949C11.1538 10.1135 11.7556 10.3459 12.2636 10.5422C12.3966 10.5935 12.5231 10.6424 12.6307 10.6933C13.1846 10.955 14 11.3833 14 12.7315C14 13.4068 13.4336 14.5001 12.0077 14.5001C10.0923 14.5001 9.5846 13.3501 9.5 13.1439Z" fill="#F4F4F5"/>
<path d="M4.5 13.2794L5.57435 12.5977C5.6585 12.8513 5.98565 13.319 6.46025 13.319C6.9349 13.319 7.17785 12.8315 7.17785 12.5977V8.00011H8.4991V12.5977C8.5205 13.2318 8.1688 14.5001 6.6166 14.5001C5.1895 14.5001 4.59621 13.652 4.5 13.2794Z" fill="#F4F4F5"/>
</svg>
