<svg width="16" height="17" viewBox="0 0 16 17" fill="none" xmlns="http://www.w3.org/2000/svg">
<path fill-rule="evenodd" clip-rule="evenodd" d="M6.5082 1.5C5.40965 1.5 4.51912 2.36226 4.51912 3.42593V4.75926H7.96175V5.12963H2.98907C1.89053 5.12963 1 5.9919 1 7.05555V9.94445C1 11.0081 1.89053 11.8703 2.98907 11.8703H4.13661V10.2408C4.13661 9.1771 5.02715 8.3148 6.1257 8.3148H9.7978C10.7273 8.3148 11.4808 7.5852 11.4808 6.6852V3.42593C11.4808 2.36226 10.5903 1.5 9.4918 1.5H6.5082ZM6.0492 3.87037C6.42945 3.87037 6.7377 3.57189 6.7377 3.20371C6.7377 2.83552 6.42945 2.53703 6.0492 2.53703C5.6689 2.53703 5.36065 2.83552 5.36065 3.20371C5.36065 3.57189 5.6689 3.87037 6.0492 3.87037Z" fill="#9F9FA9"/>
<path fill-rule="evenodd" clip-rule="evenodd" d="M9.4917 15.5C10.5902 15.5 11.4808 14.6377 11.4808 13.5741V12.2407H8.03815V11.8704H13.0108C14.1094 11.8704 14.9999 11.0081 14.9999 9.94445V7.05555C14.9999 5.9919 14.1094 5.12964 13.0108 5.12964H11.8633V6.75925C11.8633 7.82295 10.9727 8.6852 9.87425 8.6852H6.2021C5.27255 8.6852 4.51904 9.4148 4.51904 10.3148V13.5741C4.51904 14.6377 5.4096 15.5 6.5081 15.5H9.4917ZM9.95075 13.1296C9.57045 13.1296 9.2622 13.4281 9.2622 13.7963C9.2622 14.1645 9.57045 14.4629 9.95075 14.4629C10.331 14.4629 10.6392 14.1645 10.6392 13.7963C10.6392 13.4281 10.331 13.1296 9.95075 13.1296Z" fill="#9F9FA9"/>
</svg>
