<svg width="18" height="19" viewBox="0 0 18 19" fill="none" xmlns="http://www.w3.org/2000/svg">
<path d="M8.05106 12.9937C8.36043 13.0077 8.67656 13.0179 8.99662 13.0179C9.32006 13.0179 9.63956 13.0111 9.95287 12.9937C9.63956 13.3987 9.33018 13.757 9.00281 14.0984L9.00731 14.0939C8.68162 13.7564 8.36887 13.3976 8.07412 13.0241L8.05106 12.9937ZM4.84593 12.5437C5.45512 12.6984 6.19818 12.83 6.95643 12.911L7.03012 12.9172C7.49418 13.5545 7.96331 14.1153 8.46674 14.6429L8.46056 14.6362C7.72312 15.4591 6.72806 16.0374 5.6025 16.2449L5.57156 16.2494C5.56931 16.2494 5.56706 16.2494 5.56481 16.2494C5.42531 16.2494 5.29368 16.2151 5.17837 16.1544L5.18287 16.1566C4.71487 15.8894 4.51181 14.8674 4.66987 13.5539C4.70756 13.2305 4.76943 12.8902 4.84537 12.5431L4.84593 12.5437ZM13.1614 12.5364C13.2277 12.803 13.2902 13.1427 13.3346 13.4881L13.3397 13.5365C13.5011 14.8494 13.302 15.8703 12.8379 16.1431C12.7344 16.2005 12.6107 16.2342 12.4791 16.2342C12.4661 16.2342 12.4532 16.2337 12.4402 16.2331H12.4419C11.2871 16.0222 10.2926 15.4479 9.55687 14.6351L9.55293 14.6306C10.0474 14.1114 10.5131 13.5517 10.9401 12.9627L10.9727 12.9155C11.8029 12.8289 12.5471 12.695 13.2722 12.5122L13.1614 12.5358V12.5364ZM5.5035 10.4371C5.64412 10.7127 5.79149 10.9872 5.9535 11.2629C6.11512 11.537 6.28031 11.8047 6.44906 12.0661C5.96081 11.9947 5.48943 11.9047 5.03887 11.795C5.16543 11.3523 5.32406 10.8939 5.50293 10.436L5.5035 10.4371ZM12.4942 10.4231C12.6804 10.8849 12.8385 11.3456 12.9696 11.7922C12.5196 11.9024 12.0442 11.9958 11.5526 12.0661C11.7214 11.8023 11.8901 11.5306 12.0482 11.2522C12.2062 10.9782 12.3542 10.6981 12.4954 10.4225L12.4942 10.4231ZM4.28568 7.41424C4.53093 8.24562 4.79418 8.94087 5.10075 9.61137L5.05856 9.50899C4.79643 10.0743 4.53712 10.7656 4.3245 11.4772L4.29525 11.5925C3.89812 11.4704 3.57862 11.3506 3.26756 11.2162L3.33224 11.2409C2.11499 10.7229 1.3275 10.0417 1.3275 9.50168C1.3275 8.96168 2.11499 8.27712 3.33224 7.76131C3.62756 7.63474 3.95156 7.52056 4.28568 7.41424ZM13.7014 7.41143C14.0417 7.51662 14.3651 7.63418 14.6677 7.76131C15.885 8.28162 16.6725 8.96168 16.6725 9.50168C16.6691 10.0417 15.8816 10.7246 14.6644 11.2415C14.3691 11.3681 14.0456 11.4817 13.7121 11.588C13.4646 10.7538 13.2013 10.0591 12.8959 9.38749L12.9386 9.49324C13.1996 8.92849 13.4595 8.23718 13.6716 7.52562L13.7014 7.40974V7.41143ZM11.5481 6.93724C12.0369 7.00981 12.5077 7.09868 12.9583 7.20949C12.8317 7.65387 12.6737 8.11062 12.4942 8.56849C12.3536 8.29456 12.2062 8.01837 12.0442 7.74331C11.8862 7.46768 11.7174 7.19937 11.5487 6.93781L11.5481 6.93724ZM6.44512 6.93724C6.27637 7.20218 6.10762 7.47331 5.95012 7.75287C5.79206 8.02681 5.64412 8.30243 5.5035 8.57806C5.31731 8.11681 5.15925 7.65724 5.02818 7.20949C5.47818 7.10431 5.95237 7.01037 6.44456 6.93837L6.44512 6.93724ZM9 6.75837C9.52031 6.75837 10.0384 6.78199 10.548 6.82362C10.8334 7.23274 11.1105 7.66849 11.3794 8.13087C11.6407 8.58087 11.8792 9.03687 12.0949 9.49887C11.8783 9.95956 11.6409 10.4197 11.3827 10.8697C11.1156 11.3337 10.8394 11.7753 10.5531 12.1842C10.0412 12.2287 9.52256 12.2529 8.99943 12.2529C8.47912 12.2529 7.96106 12.2281 7.45143 12.1876C7.16624 11.7787 6.88781 11.3411 6.62006 10.8804C6.35868 10.4304 6.12018 9.97437 5.90456 9.51237C6.11774 9.05056 6.35849 8.58931 6.61668 8.13874C6.88387 7.67468 7.16006 7.23481 7.44637 6.82587C7.95824 6.78087 8.47687 6.75724 9 6.75724V6.75837ZM8.98931 4.91281C9.31556 5.25031 9.62831 5.60862 9.92249 5.98212L9.945 6.01193C9.63562 5.99787 9.3195 5.98831 8.99943 5.98831C8.67599 5.98831 8.35649 5.99506 8.04318 6.01193C8.35593 5.60693 8.66531 5.24862 8.99325 4.90718L8.98874 4.91168L8.98931 4.91281ZM5.5575 2.76856C6.71231 2.98006 7.70624 3.55437 8.44256 4.36662L8.4465 4.37112C7.95206 4.89087 7.48631 5.45056 7.05937 6.04062L7.02674 6.08787C6.19706 6.17393 5.45287 6.30668 4.72837 6.48949L4.83862 6.46587C4.75987 6.12162 4.70137 5.78806 4.66031 5.46799C4.49887 4.15512 4.698 3.13418 5.16206 2.86249C5.27793 2.80793 5.4135 2.77418 5.55637 2.76968H5.55806L5.5575 2.76856ZM12.4256 2.75449V2.75899C12.4329 2.75899 12.4414 2.75843 12.4504 2.75843C12.5848 2.75843 12.7114 2.79162 12.8227 2.85012L12.8182 2.84787C13.2862 3.11618 13.4893 4.13768 13.3312 5.45168C13.2936 5.77512 13.2317 6.11599 13.1557 6.46362C12.5454 6.30724 11.8024 6.17506 11.0441 6.09462L10.9721 6.08843C10.5075 5.45056 10.0384 4.88974 9.53493 4.36156L9.54168 4.36831C10.2791 3.54706 11.2725 2.96881 12.3958 2.76012L12.4273 2.75506L12.4256 2.75449ZM12.429 1.98837C11.0554 2.19706 9.86625 2.86418 8.99775 3.82662L8.99325 3.83168C8.11856 2.86981 6.92943 2.20718 5.58956 2.00637L5.55806 2.00243C5.55075 2.00243 5.54175 2.00243 5.53275 2.00243C5.25656 2.00243 4.99724 2.07499 4.77281 2.20212L4.78068 2.19818C3.81431 2.75562 3.59774 4.49262 4.09668 6.67231C1.95693 7.33324 0.565308 8.38962 0.565308 9.50281C0.565308 10.6205 1.96425 11.6797 4.11018 12.3356C3.61518 14.5237 3.83625 16.2635 4.80487 16.8204C5.0175 16.9424 5.27287 17.0139 5.54456 17.0139C5.55693 17.0139 5.56931 17.0139 5.58112 17.0133H5.57943C6.95306 16.8046 8.14218 16.1369 9.01068 15.1739L9.01518 15.1689C9.88987 16.1313 11.079 16.7939 12.4189 16.9947L12.4504 16.9987C12.4588 16.9987 12.4695 16.9987 12.4796 16.9987C12.7541 16.9987 13.0123 16.9267 13.2356 16.8012L13.2277 16.8052C14.1936 16.2483 14.4107 14.5113 13.9117 12.3311C16.0436 11.6757 17.4352 10.6171 17.4352 9.50224C17.4352 8.38456 16.0363 7.32537 13.8904 6.66781C14.3854 4.48193 14.1643 2.74043 13.1957 2.18299C12.9808 2.05981 12.7232 1.98724 12.4487 1.98724C12.4414 1.98724 12.4341 1.98724 12.4267 1.98724H12.4279L12.429 1.98837ZM10.5677 9.50281C10.5677 10.3707 9.86399 11.0744 8.99606 11.0744C8.12812 11.0744 7.42443 10.3707 7.42443 9.50281C7.42443 8.63487 8.12812 7.93118 8.99606 7.93118C9.43031 7.93118 9.82293 8.10724 10.1076 8.39131C10.3922 8.67593 10.5677 9.06856 10.5677 9.50281Z" fill="#9F9FA9"/>
</svg>
