<svg width="20" height="21" viewBox="0 0 20 21" fill="none" xmlns="http://www.w3.org/2000/svg">
<path d="M10 4.48438C7.33333 4.48438 5.66667 5.81771 5 8.48438C6 7.15104 7.16667 6.65104 8.5 6.98438C9.26074 7.17456 9.80448 7.72645 10.4063 8.33738C11.3868 9.33256 12.5215 10.4844 15 10.4844C17.6667 10.4844 19.3333 9.15104 20 6.48438C19 7.81771 17.8333 8.31771 16.5 7.98438C15.7393 7.79419 15.1955 7.2423 14.5937 6.63138C13.6132 5.63619 12.4785 4.48438 10 4.48438ZM5 10.4844C2.33333 10.4844 0.666667 11.8177 0 14.4844C1 13.151 2.16667 12.651 3.5 12.9844C4.26074 13.1746 4.80448 13.7264 5.40633 14.3374C6.38678 15.3326 7.52152 16.4844 10 16.4844C12.6667 16.4844 14.3333 15.151 15 12.4844C14 13.8177 12.8333 14.3177 11.5 13.9844C10.7393 13.7942 10.1955 13.2423 9.59367 12.6314C8.61322 11.6362 7.47848 10.4844 5 10.4844Z" fill="url(#paint0_linear_19_1755)"/>
<defs>
<linearGradient id="paint0_linear_19_1755" x1="-55.5556" y1="388.484" x2="1671.77" y2="1384.42" gradientUnits="userSpaceOnUse">
<stop stop-color="#9F9FA9"/>
<stop offset="1" stop-color="#D4D4D8"/>
</linearGradient>
</defs>
</svg>
